<svg data-name="Layer 1" width="755" height="510" viewBox="0 0 755 510" xmlns="http://www.w3.org/2000/svg">
  <defs></defs>
  <title>nakamoto</title>
  <rect x="87.494" y="117" width="2" height="107" fill="#3f3d56"></rect>
  <rect x="87.494" y="255.85" width="2" height="94.149" fill="#3f3d56"></rect>
  <rect x="84.494" y="365" width="155" height="2" fill="#3f3d56"></rect>
  <rect x="18.494" y="392" width="2" height="85" fill="#3f3d56"></rect>
  <rect x="36.494" y="492" width="235" height="2" fill="#3f3d56"></rect>
  <path fill="none" stroke="#3f3d56" stroke-miterlimit="10" stroke-width="2"></path>
  <path fill="none" stroke="#3f3d56" stroke-miterlimit="10" stroke-width="2"></path>
  <rect x="465.494" y="49" width="2" height="101" fill="#3f3d56"></rect>
  <rect x="303.46" y="166" width="147.034" height="2" fill="#3f3d56"></rect>
  <rect x="286.494" y="182" width="2" height="135" fill="#3f3d56"></rect>
  <path d="M 88.494 257 C 75.408 257 67.228 242.833 73.772 231.5 C 80.315 220.167 96.673 220.167 103.217 231.5 C 104.709 234.084 105.494 237.016 105.494 240 C 105.484 249.384 97.879 256.989 88.494 257 Z M 88.494 225 C 76.947 225 69.73 237.5 75.504 247.5 C 81.277 257.5 95.711 257.5 101.485 247.5 C 102.801 245.22 103.494 242.633 103.494 240 C 103.485 231.719 96.775 225.009 88.494 225 Z" fill="#3f3d56"></path>
  <path d="M 20.494 510 C 7.408 510 -0.772 495.833 5.772 484.5 C 12.315 473.167 28.673 473.167 35.217 484.5 C 36.709 487.084 37.494 490.016 37.494 493 C 37.484 502.384 29.879 509.989 20.494 510 Z M 20.494 478 C 8.947 478 1.73 490.5 7.504 500.5 C 13.277 510.5 27.711 510.5 33.485 500.5 C 34.801 498.22 35.494 495.633 35.494 493 C 35.485 484.719 28.775 478.009 20.494 478 Z" fill="#3f3d56"></path>
  <circle cx="89.494" cy="366" r="16" fill="#6ab490"></circle>
  <rect x="502.494" y="239" width="166" height="2" fill="#3f3d56"></rect>
  <rect x="485.494" y="255.85" width="2" height="94.149" fill="#3f3d56"></rect>
  <rect x="336.494" y="365" width="133" height="2" fill="#3f3d56"></rect>
  <rect x="570.494" y="374" width="138" height="2" fill="#3f3d56"></rect>
  <rect x="554.494" y="392" width="2" height="85" fill="#3f3d56"></rect>
  <rect x="303.494" y="492" width="235" height="2" fill="#3f3d56"></rect>
  <rect x="286.494" y="415" width="2" height="62" fill="#3f3d56"></rect>
  <circle cx="486.494" cy="240" r="16" fill="#6ab490"></circle>
  <path d="M 466.494 183 C 453.408 183 445.228 168.833 451.772 157.5 C 458.315 146.167 474.673 146.167 481.217 157.5 C 482.709 160.084 483.494 163.016 483.494 166 C 483.484 175.384 475.879 182.989 466.494 183 Z M 466.494 151 C 454.947 151 447.73 163.5 453.504 173.5 C 459.277 183.5 473.711 183.5 479.485 173.5 C 480.801 171.22 481.494 168.633 481.494 166 C 481.485 157.719 474.775 151.009 466.494 151 Z" fill="#3f3d56"></path>
  <path d="M 287.494 183 C 274.408 183 266.228 168.833 272.772 157.5 C 279.315 146.167 295.673 146.167 302.217 157.5 C 303.709 160.084 304.494 163.016 304.494 166 C 304.484 175.384 296.879 182.989 287.494 183 Z M 287.494 151 C 275.947 151 268.73 163.5 274.504 173.5 C 280.277 183.5 294.711 183.5 300.485 173.5 C 301.801 171.22 302.494 168.633 302.494 166 C 302.485 157.719 295.775 151.009 287.494 151 Z" fill="#3f3d56"></path>
  <path d="M 554.494 393 C 541.408 393 533.228 378.833 539.772 367.5 C 546.315 356.167 562.673 356.167 569.217 367.5 C 570.709 370.084 571.494 373.016 571.494 376 C 571.484 385.384 563.879 392.989 554.494 393 Z M 554.494 361 C 542.947 361 535.73 373.5 541.504 383.5 C 547.277 393.5 561.711 393.5 567.485 383.5 C 568.801 381.22 569.494 378.633 569.494 376 C 569.485 367.719 562.775 361.009 554.494 361 Z" fill="#3f3d56"></path>
  <circle cx="554.494" cy="493" r="16" fill="#6ab490"></circle>
  <path d="M 287.494 510 C 274.408 510 266.228 495.833 272.772 484.5 C 279.315 473.167 295.673 473.167 302.217 484.5 C 303.709 487.084 304.494 490.016 304.494 493 C 304.484 502.384 296.879 509.989 287.494 510 Z M 287.494 478 C 275.947 478 268.73 490.5 274.504 500.5 C 280.277 510.5 294.711 510.5 300.485 500.5 C 301.801 498.22 302.494 495.633 302.494 493 C 302.485 484.719 295.775 478.009 287.494 478 Z" fill="#3f3d56"></path>
  <path d="M 485.494 383 C 472.408 383 464.228 368.833 470.772 357.5 C 477.315 346.167 493.673 346.167 500.217 357.5 C 501.709 360.084 502.494 363.016 502.494 366 C 502.484 375.384 494.879 382.989 485.494 383 Z M 485.494 351 C 473.947 351 466.73 363.5 472.504 373.5 C 478.277 383.5 492.711 383.5 498.485 373.5 C 499.801 371.22 500.494 368.633 500.494 366 C 500.485 357.719 493.775 351.009 485.494 351 Z" fill="#3f3d56"></path>
  <path d="M 20.494 342 C 5.098 342 -4.525 358.667 3.173 372 C 10.871 385.333 30.116 385.333 37.814 372 C 39.57 368.96 40.494 365.511 40.494 362 C 40.462 350.968 31.526 342.032 20.494 342 Z M 20.494 348 C 25.113 348 27.999 353 25.69 357 C 23.381 361 17.607 361 15.298 357 C 14.771 356.088 14.494 355.053 14.494 354 C 14.505 350.691 17.185 348.011 20.494 348 Z M 20.494 376.885 C 15.682 376.863 11.191 374.466 8.494 370.481 C 8.59 366.481 16.494 364.279 20.494 364.279 C 24.494 364.279 32.398 366.481 32.494 370.481 C 29.794 374.463 25.305 376.858 20.494 376.885 Z" fill="#3f3d56"></path>
  <path d="M 89.494 69 C 74.098 69 64.475 85.667 72.173 99 C 79.871 112.333 99.116 112.333 106.814 99 C 108.57 95.96 109.494 92.511 109.494 89 C 109.462 77.968 100.526 69.032 89.494 69 Z M 89.494 75 C 94.113 75 96.999 80 94.69 84 C 92.381 88 86.607 88 84.298 84 C 83.771 83.088 83.494 82.053 83.494 81 C 83.505 77.691 86.185 75.011 89.494 75 Z M 89.494 103.885 C 84.682 103.863 80.191 101.466 77.494 97.481 C 77.59 93.481 85.494 91.279 89.494 91.279 C 93.494 91.279 101.398 93.481 101.494 97.481 C 98.794 101.463 94.305 103.858 89.494 103.885 Z" fill="#3f3d56"></path>
  <path d="M 466.494 0 C 451.098 0 441.475 16.667 449.173 30 C 456.871 43.333 476.116 43.333 483.814 30 C 485.57 26.96 486.494 23.511 486.494 20 C 486.462 8.968 477.526 0.032 466.494 0 Z M 466.494 6 C 471.113 6 473.999 11 471.69 15 C 469.381 19 463.607 19 461.298 15 C 460.771 14.088 460.494 13.053 460.494 12 C 460.505 8.691 463.185 6.011 466.494 6 Z M 466.494 34.885 C 461.682 34.863 457.191 32.466 454.494 28.481 C 454.59 24.481 462.494 22.279 466.494 22.279 C 470.494 22.279 478.398 24.481 478.494 28.481 C 475.794 32.463 471.305 34.858 466.494 34.885 Z" fill="#3f3d56"></path>
  <path d="M 696.494 219 C 681.098 219 671.475 235.667 679.173 249 C 686.871 262.333 706.116 262.333 713.814 249 C 715.57 245.96 716.494 242.511 716.494 239 C 716.462 227.968 707.526 219.032 696.494 219 Z M 696.494 225 C 701.113 225 703.999 230 701.69 234 C 699.381 238 693.607 238 691.298 234 C 690.771 233.088 690.494 232.053 690.494 231 C 690.505 227.691 693.185 225.011 696.494 225 Z M 696.494 253.885 C 691.682 253.863 687.191 251.466 684.494 247.481 C 684.59 243.481 692.494 241.279 696.494 241.279 C 700.494 241.279 708.398 243.481 708.494 247.481 C 705.794 251.463 701.305 253.858 696.494 253.885 Z" fill="#3f3d56"></path>
  <path d="M 734.494 354 C 719.098 354 709.475 370.667 717.173 384 C 724.871 397.333 744.116 397.333 751.814 384 C 753.57 380.96 754.494 377.511 754.494 374 C 754.462 362.968 745.526 354.032 734.494 354 Z M 734.494 360 C 739.113 360 741.999 365 739.69 369 C 737.381 373 731.607 373 729.298 369 C 728.771 368.088 728.494 367.053 728.494 366 C 728.505 362.691 731.185 360.011 734.494 360 Z M 734.494 388.885 C 729.682 388.863 725.191 386.466 722.494 382.481 C 722.59 378.481 730.494 376.279 734.494 376.279 C 738.494 376.279 746.398 378.481 746.494 382.481 C 743.794 386.463 739.305 388.858 734.494 388.885 Z" fill="#3f3d56"></path>
  <path d="M 298.034 329.212 C 270.029 322.229 244.968 348.181 252.923 375.925 C 260.878 403.669 295.884 412.397 315.933 391.635 C 320.504 386.902 323.749 381.048 325.342 374.663 C 330.356 354.57 318.128 334.218 298.034 329.212 Z" fill="#6ab490"></path>
</svg>