<svg width="288" height="161" viewBox="0 0 288 161" fill="none" xmlns="http://www.w3.org/2000/svg">
<path d="M283.828 151.411H4.059C1.81728 151.411 0 153.413 0 155.884C0 158.354 1.81728 160.357 4.059 160.357H283.828C286.07 160.357 287.887 158.354 287.887 155.884C287.887 153.413 286.07 151.411 283.828 151.411Z" fill="#C9C9C9"/>
<path d="M56.7042 114.129C54.6401 114.111 52.6659 113.196 51.2119 111.581C49.7579 109.967 48.9419 107.784 48.9419 105.509C48.9419 103.235 49.7579 101.052 51.2119 99.4377C52.6659 97.8231 54.6401 96.9074 56.7042 96.8902H100.918V114.129H56.7042Z" fill="#CECECE"/>
<path d="M56.7042 93.9062H103.477V117.109H56.7042C53.9122 117.109 51.2346 115.886 49.2604 113.711C47.2861 111.535 46.177 108.584 46.177 105.508V105.508C46.177 103.984 46.4492 102.476 46.9782 101.068C47.5072 99.6604 48.2826 98.3815 49.2602 97.3042C50.2377 96.2269 51.3983 95.3723 52.6755 94.7893C53.9528 94.2063 55.3217 93.9062 56.7042 93.9062V93.9062Z" fill="white"/>
<path d="M100.918 103.83H53.844C53.6048 103.83 53.3753 103.725 53.2062 103.539C53.037 103.352 52.942 103.099 52.942 102.836C52.942 102.572 53.037 102.319 53.2062 102.133C53.3753 101.946 53.6048 101.842 53.844 101.842H100.918C101.157 101.842 101.386 101.946 101.555 102.133C101.725 102.319 101.82 102.572 101.82 102.836C101.82 103.099 101.725 103.352 101.555 103.539C101.386 103.725 101.157 103.83 100.918 103.83Z" fill="#1F3969"/>
<path d="M100.918 109.094H53.844C53.6048 109.094 53.3753 108.989 53.2062 108.802C53.037 108.616 52.942 108.363 52.942 108.1C52.942 107.836 53.037 107.583 53.2062 107.397C53.3753 107.21 53.6048 107.106 53.844 107.106H100.918C101.157 107.106 101.386 107.21 101.555 107.397C101.725 107.583 101.82 107.836 101.82 108.1C101.82 108.363 101.725 108.616 101.555 108.802C101.386 108.989 101.157 109.094 100.918 109.094Z" fill="#1F3969"/>
<path d="M100.918 115.123H56.7042C54.4015 115.104 52.1987 114.084 50.5762 112.283C48.9538 110.482 48.0433 108.047 48.0433 105.509C48.0433 102.972 48.9538 100.537 50.5762 98.7361C52.1987 96.9352 54.4015 95.9144 56.7042 95.8961H100.918C101.157 95.8961 101.386 96.0009 101.555 96.1873C101.725 96.3737 101.82 96.6265 101.82 96.8902V114.129C101.82 114.392 101.725 114.645 101.555 114.831C101.386 115.018 101.157 115.123 100.918 115.123ZM56.7042 97.8821C54.8788 97.8984 53.1331 98.7089 51.8474 100.137C50.5618 101.565 49.8404 103.496 49.8404 105.507C49.8404 107.519 50.5618 109.449 51.8474 110.878C53.1331 112.306 54.8788 113.116 56.7042 113.133H100.016V97.8821H56.7042Z" fill="#1F3969"/>
<path d="M56.7042 114.129C54.6401 114.111 52.6659 113.196 51.2119 111.581C49.7579 109.967 48.9419 107.784 48.9419 105.509C48.9419 103.235 49.7579 101.052 51.2119 99.4377C52.6659 97.8231 54.6401 96.9074 56.7042 96.8901H101.673L103.477 93.9081H56.7042C53.9122 93.9081 51.2346 95.1304 49.2604 97.306C47.2861 99.4816 46.177 102.432 46.177 105.509C46.177 107.033 46.4492 108.541 46.9782 109.949C47.5072 111.356 48.2826 112.635 49.2602 113.713C50.2377 114.79 51.3983 115.644 52.6755 116.227C53.9528 116.811 55.3217 117.111 56.7042 117.111H103.477L101.673 114.129H56.7042Z" fill="#FF3E3E"/>
<path d="M103.477 118.105H56.7042C53.6854 118.084 50.7966 116.748 48.6687 114.388C46.5407 112.028 45.3463 108.836 45.3463 105.509C45.3463 102.183 46.5407 98.9909 48.6687 96.6311C50.7966 94.2713 53.6854 92.9351 56.7042 92.9142H103.477C103.64 92.9142 103.8 92.9631 103.94 93.0555C104.08 93.148 104.195 93.2805 104.272 93.4391C104.349 93.5977 104.386 93.7764 104.378 93.9561C104.37 94.1357 104.318 94.3097 104.227 94.4594L102.423 97.4414C102.341 97.5775 102.23 97.6892 102.099 97.7665C101.968 97.8437 101.822 97.8842 101.673 97.8842H56.7042C54.8787 97.9004 53.133 98.7109 51.8474 100.139C50.5618 101.567 49.8404 103.498 49.8404 105.509C49.8404 107.521 50.5618 109.451 51.8474 110.88C53.133 112.308 54.8787 113.118 56.7042 113.135H101.673C101.822 113.135 101.968 113.175 102.099 113.252C102.23 113.33 102.341 113.441 102.423 113.577L104.227 116.559C104.318 116.709 104.37 116.883 104.378 117.063C104.386 117.242 104.349 117.421 104.272 117.58C104.195 117.738 104.08 117.871 103.94 117.963C103.8 118.056 103.64 118.105 103.477 118.105ZM56.7042 94.9002C54.1628 94.9194 51.7314 96.0454 49.9405 98.0325C48.1495 100.02 47.1444 102.707 47.1444 105.507C47.1444 108.308 48.1495 110.995 49.9405 112.982C51.7314 114.969 54.1628 116.095 56.7042 116.115H101.793L101.192 115.121H56.7042C54.4015 115.102 52.1987 114.082 50.5762 112.281C48.9538 110.48 48.0433 108.045 48.0433 105.507C48.0433 102.97 48.9538 100.535 50.5762 98.7342C52.1987 96.9333 54.4015 95.9124 56.7042 95.8942H101.192L101.793 94.9002H56.7042Z" fill="#1F3969"/>
<g opacity="0.28">
<path opacity="0.28" d="M93.4219 93.9081H85.1276V117.111H93.4219V93.9081Z" fill="#1F3969"/>
<path opacity="0.28" d="M93.4219 118.105H85.1276C84.8884 118.105 84.6589 118 84.4898 117.813C84.3206 117.627 84.2256 117.374 84.2256 117.111V93.9062C84.2256 93.6425 84.3206 93.3897 84.4898 93.2033C84.6589 93.0169 84.8884 92.9122 85.1276 92.9122H93.4219C93.6612 92.9122 93.8906 93.0169 94.0597 93.2033C94.2289 93.3897 94.3239 93.6425 94.3239 93.9062V117.109C94.3242 117.239 94.301 117.369 94.2558 117.49C94.2106 117.61 94.1442 117.72 94.0604 117.813C93.9766 117.905 93.8771 117.979 93.7675 118.029C93.658 118.079 93.5405 118.105 93.4219 118.105ZM86.0296 116.117H92.5199V94.9002H86.0296V116.117Z" fill="#1F3969"/>
</g>
<path d="M98.6671 117.111H13.0204C11.3363 117.111 9.97116 118.615 9.97116 120.471V132.913C9.97116 134.769 11.3363 136.273 13.0204 136.273H98.6671C100.351 136.273 101.716 134.769 101.716 132.913V120.471C101.716 118.615 100.351 117.111 98.6671 117.111Z" fill="#50B56F"/>
<path d="M98.6671 137.267H13.0222C11.9746 137.266 10.9702 136.807 10.2294 135.991C9.4886 135.174 9.07182 134.068 9.07051 132.913V120.471C9.07182 119.316 9.4886 118.21 10.2294 117.393C10.9702 116.577 11.9746 116.118 13.0222 116.117H98.6671C99.7146 116.118 100.719 116.577 101.46 117.393C102.2 118.21 102.617 119.316 102.618 120.471V132.913C102.617 134.068 102.2 135.174 101.46 135.991C100.719 136.807 99.7146 137.266 98.6671 137.267V137.267ZM13.0222 118.105C12.4528 118.105 11.907 118.355 11.5044 118.798C11.1017 119.242 10.8752 119.843 10.8745 120.471V132.913C10.8752 133.541 11.1017 134.142 11.5044 134.586C11.907 135.029 12.4528 135.279 13.0222 135.279H98.6671C99.2363 135.279 99.7821 135.029 100.185 134.585C100.587 134.142 100.814 133.541 100.814 132.913V120.471C100.814 119.843 100.587 119.242 100.185 118.799C99.7821 118.355 99.2363 118.105 98.6671 118.105H13.0222Z" fill="#1F3969"/>
<g opacity="0.28">
<path opacity="0.28" d="M98.6671 117.111H85.1276V124.566C85.1275 125.679 85.3265 126.782 85.7132 127.811C86.0999 128.839 86.6666 129.774 87.3811 130.562C88.0957 131.349 88.9439 131.974 89.8775 132.4C90.8111 132.826 91.8117 133.045 92.8221 133.045H101.71C101.71 133.002 101.716 132.959 101.716 132.915V120.471C101.716 119.58 101.395 118.725 100.823 118.095C100.251 117.465 99.4758 117.111 98.6671 117.111Z" fill="#1F3969"/>
<path opacity="0.28" d="M101.71 134.037H92.8221C90.5429 134.035 88.3578 133.035 86.7462 131.259C85.1346 129.483 84.2281 127.075 84.2256 124.564V117.109C84.2256 116.845 84.3206 116.592 84.4898 116.406C84.6589 116.219 84.8884 116.115 85.1276 116.115H98.6671C99.7146 116.116 100.719 116.575 101.46 117.391C102.2 118.208 102.617 119.314 102.618 120.469V132.911C102.618 132.961 102.616 133.011 102.613 133.057C102.599 133.315 102.499 133.557 102.332 133.738C102.166 133.919 101.944 134.026 101.71 134.037ZM86.0296 118.105V124.566C86.0315 126.55 86.7477 128.453 88.0212 129.856C89.2946 131.26 91.0212 132.049 92.8221 132.051H100.813V120.471C100.812 119.844 100.586 119.243 100.183 118.799C99.7807 118.355 99.235 118.106 98.6657 118.105L86.0296 118.105Z" fill="#1F3969"/>
</g>
<path d="M122.775 140.121H23.5787C24.8001 143.764 24.8001 147.768 23.5787 151.411H122.775C121.555 147.767 121.555 143.764 122.775 140.121V140.121Z" fill="#CECECE"/>
<path d="M125.465 137.117H20.8921V140.121H125.465V137.117Z" fill="#5F5AFF"/>
<path d="M125.466 141.115H20.8921C20.6529 141.115 20.4235 141.01 20.2543 140.824C20.0852 140.637 19.9901 140.384 19.9901 140.121V137.117C19.9901 136.853 20.0852 136.6 20.2543 136.414C20.4235 136.228 20.6529 136.123 20.8921 136.123H125.466C125.705 136.123 125.934 136.228 126.103 136.414C126.272 136.6 126.368 136.853 126.368 137.117V140.121C126.368 140.384 126.272 140.637 126.103 140.824C125.934 141.01 125.705 141.115 125.466 141.115ZM21.7941 139.127H124.564V138.111H21.7941V139.127Z" fill="#1F3969"/>
<path d="M125.465 151.411H20.8921V154.414H125.465V151.411Z" fill="#F6F9FD"/>
<path d="M125.465 151.411H20.8921V154.414H125.465V151.411Z" fill="#5F5AFF"/>
<path d="M125.466 155.408H20.8921C20.6529 155.408 20.4235 155.304 20.2543 155.117C20.0852 154.931 19.9901 154.678 19.9901 154.414V151.409C19.9901 151.145 20.0852 150.893 20.2543 150.706C20.4235 150.52 20.6529 150.415 20.8921 150.415H125.466C125.705 150.415 125.934 150.52 126.103 150.706C126.272 150.893 126.368 151.145 126.368 151.409V154.413C126.368 154.544 126.344 154.673 126.299 154.794C126.254 154.915 126.188 155.024 126.104 155.117C126.02 155.209 125.921 155.283 125.811 155.333C125.701 155.383 125.584 155.408 125.466 155.408ZM21.7941 153.42H124.564V152.403H21.7941V153.42Z" fill="#1F3969"/>
<path d="M177.455 143.805L176.096 127.08H153.813L152.456 143.805C152.14 147.69 150.02 151.409 146.693 154.379L146.689 154.415H183.223L183.219 154.379C179.892 151.409 177.771 147.689 177.455 143.805Z" fill="#BFCFE2"/>
<g opacity="0.28">
<path opacity="0.28" d="M153.813 127.079L152.997 137.117H176.912L176.096 127.079H153.813Z" fill="#1F3969"/>
<path opacity="0.28" d="M176.912 138.111H152.997C152.872 138.111 152.748 138.082 152.633 138.026C152.518 137.971 152.416 137.889 152.331 137.788C152.247 137.686 152.182 137.566 152.142 137.435C152.102 137.304 152.087 137.165 152.098 137.028L152.914 126.988C152.934 126.741 153.038 126.511 153.204 126.344C153.37 126.176 153.587 126.083 153.813 126.083H176.096C176.321 126.083 176.538 126.176 176.704 126.344C176.87 126.511 176.974 126.741 176.994 126.988L177.81 137.028C177.821 137.165 177.806 137.304 177.766 137.435C177.726 137.566 177.662 137.686 177.577 137.788C177.493 137.889 177.39 137.971 177.275 138.026C177.161 138.082 177.037 138.111 176.912 138.111H176.912ZM153.984 136.123H175.925L175.271 128.071H154.638L153.984 136.123Z" fill="#1F3969"/>
</g>
<path d="M183.221 155.408H146.687C146.56 155.408 146.433 155.379 146.317 155.321C146.201 155.263 146.097 155.179 146.012 155.073C145.927 154.968 145.864 154.844 145.826 154.71C145.788 154.575 145.777 154.434 145.792 154.294C145.821 154.027 145.939 153.782 146.124 153.606C149.341 150.734 151.27 147.221 151.555 143.716L152.915 126.991C152.935 126.744 153.038 126.514 153.204 126.346C153.371 126.179 153.588 126.086 153.813 126.086H176.096C176.321 126.086 176.538 126.179 176.704 126.346C176.87 126.514 176.974 126.744 176.994 126.991L178.354 143.716C178.638 147.221 180.567 150.734 183.785 153.606C183.967 153.768 184.085 154.002 184.113 154.258C184.128 154.4 184.117 154.544 184.08 154.681C184.042 154.818 183.979 154.944 183.895 155.053C183.811 155.161 183.708 155.249 183.592 155.31C183.476 155.371 183.35 155.405 183.221 155.408ZM148.993 153.42H180.914C178.355 150.555 176.826 147.24 176.555 143.892L175.269 128.073H154.638L153.352 143.893C153.08 147.241 151.554 150.556 148.993 153.42Z" fill="#1F3969"/>
<path d="M236.213 15.254H93.6966C90.7076 15.254 88.2846 17.9241 88.2846 21.218V123.6C88.2846 126.894 90.7076 129.564 93.6966 129.564H236.213C239.202 129.564 241.625 126.894 241.625 123.6V21.218C241.625 17.9241 239.202 15.254 236.213 15.254Z" fill="white"/>
<path d="M236.213 15.254H93.6966C90.7076 15.254 88.2846 17.9241 88.2846 21.218V123.6C88.2846 126.894 90.7076 129.564 93.6966 129.564H236.213C239.202 129.564 241.625 126.894 241.625 123.6V21.218C241.625 17.9241 239.202 15.254 236.213 15.254Z" fill="#BFCFE2"/>
<path d="M236.213 130.558H93.6966C92.0226 130.556 90.4177 129.823 89.234 128.518C88.0504 127.214 87.3845 125.445 87.3826 123.6V21.2184C87.3844 19.3737 88.0502 17.605 89.2339 16.3006C90.4176 14.9961 92.0226 14.2624 93.6966 14.2604H236.213C237.887 14.2624 239.492 14.9961 240.675 16.3006C241.859 17.605 242.525 19.3737 242.527 21.2184V123.6C242.525 125.445 241.859 127.214 240.675 128.518C239.491 129.823 237.887 130.556 236.213 130.558V130.558ZM93.6966 16.2484C92.5009 16.2499 91.3545 16.774 90.509 17.7057C89.6635 18.6375 89.1879 19.9008 89.1866 21.2184V123.6C89.1879 124.918 89.6635 126.181 90.509 127.113C91.3545 128.045 92.5009 128.569 93.6966 128.57H236.213C237.408 128.569 238.555 128.045 239.4 127.113C240.246 126.181 240.721 124.918 240.723 123.6V21.2184C240.721 19.9008 240.246 18.6375 239.4 17.7057C238.555 16.774 237.408 16.2499 236.213 16.2484H93.6966Z" fill="#1F3969"/>
<path d="M233.958 110.475V23.7029L95.9516 23.7029V110.475L233.958 110.475Z" fill="#F6F9FD"/>
<g opacity="0.28">
<path opacity="0.28" d="M100.919 15.254V84.1347C100.919 85.1892 101.299 86.2005 101.976 86.9461C102.652 87.6918 103.57 88.1107 104.527 88.1107H189.798C190.755 88.1107 191.673 87.6918 192.35 86.9461C193.026 86.2005 193.406 85.1892 193.406 84.1347V15.254H100.919Z" fill="#1F3969"/>
<path opacity="0.28" d="M189.798 89.1047H104.527C103.331 89.1032 102.185 88.5791 101.339 87.6474C100.494 86.7156 100.018 85.4524 100.017 84.1347V15.2539C100.017 14.9903 100.112 14.7375 100.281 14.5511C100.45 14.3647 100.68 14.2599 100.919 14.2599H193.406C193.646 14.2599 193.875 14.3647 194.044 14.5511C194.213 14.7375 194.308 14.9903 194.308 15.2539V84.1347C194.307 85.4524 193.832 86.7156 192.986 87.6474C192.141 88.5791 190.994 89.1032 189.798 89.1047ZM101.821 16.2479V84.1347C101.822 84.9253 102.107 85.6832 102.614 86.2422C103.122 86.8013 103.809 87.1158 104.527 87.1167H189.798C190.516 87.1159 191.204 86.8014 191.711 86.2424C192.218 85.6833 192.504 84.9253 192.504 84.1347V16.2479H101.821Z" fill="#1F3969"/>
</g>
<path d="M233.958 111.469H95.9516C95.7124 111.469 95.483 111.364 95.3138 111.178C95.1446 110.992 95.0496 110.739 95.0496 110.475V23.7029C95.0496 23.4393 95.1446 23.1865 95.3138 23.0001C95.483 22.8137 95.7124 22.7089 95.9516 22.7089H233.958C234.197 22.7089 234.426 22.8137 234.595 23.0001C234.765 23.1865 234.86 23.4393 234.86 23.7029V110.475C234.86 110.739 234.765 110.992 234.595 111.178C234.426 111.364 234.197 111.469 233.958 111.469ZM96.8536 109.481H233.056V24.6969H96.8536V109.481Z" fill="#1F3969"/>
<path d="M171.018 120.967H158.89C158.651 120.967 158.422 120.862 158.253 120.676C158.083 120.489 157.988 120.236 157.988 119.973C157.988 119.709 158.083 119.456 158.253 119.27C158.422 119.084 158.651 118.979 158.89 118.979H171.018C171.258 118.979 171.487 119.084 171.656 119.27C171.825 119.456 171.92 119.709 171.92 119.973C171.92 120.236 171.825 120.489 171.656 120.676C171.487 120.862 171.258 120.967 171.018 120.967V120.967Z" fill="#1F3969"/>
<path d="M193.858 0.994003H108.586C106.593 0.994003 104.978 2.77412 104.978 4.97V78.6682C104.978 80.864 106.593 82.6441 108.586 82.6441H193.858C195.851 82.6441 197.466 80.864 197.466 78.6682V4.97C197.466 2.77412 195.851 0.994003 193.858 0.994003Z" fill="#2D425E"/>
<path d="M197.465 11.6566H104.978C104.739 11.6566 104.509 11.5519 104.34 11.3655C104.171 11.1791 104.076 10.9263 104.076 10.6626V4.97C104.077 3.65232 104.553 2.38903 105.398 1.45728C106.244 0.525541 107.39 0.00144706 108.586 0H193.857C195.053 0.00144706 196.2 0.525541 197.045 1.45728C197.891 2.38903 198.366 3.65232 198.367 4.97V10.6626C198.367 10.9263 198.272 11.1791 198.103 11.3655C197.934 11.5519 197.705 11.6566 197.465 11.6566ZM105.879 9.66865H196.563V4.97C196.563 4.17937 196.277 3.42135 195.77 2.86229C195.263 2.30322 194.575 1.98879 193.857 1.988H108.586C107.869 1.98892 107.181 2.30339 106.673 2.86242C106.166 3.42146 105.881 4.17941 105.88 4.97L105.879 9.66865Z" fill="#1F3969"/>
<path d="M108.586 0.994003H193.857C194.814 0.994003 195.732 1.4129 196.409 2.15855C197.085 2.90419 197.465 3.91551 197.465 4.97001V12.5562H104.978V4.97001C104.978 3.91551 105.358 2.90419 106.035 2.15855C106.711 1.4129 107.629 0.994003 108.586 0.994003Z" fill="#D0DDF0"/>
<path d="M197.465 13.5502H104.978C104.739 13.5502 104.509 13.4455 104.34 13.2591C104.171 13.0727 104.076 12.8199 104.076 12.5562V4.97001C104.077 3.65232 104.553 2.38903 105.398 1.45729C106.244 0.525542 107.39 0.00144707 108.586 0H193.857C195.053 0.00144707 196.2 0.525542 197.045 1.45729C197.891 2.38903 198.366 3.65232 198.367 4.97001V12.5562C198.367 12.8199 198.272 13.0727 198.103 13.2591C197.934 13.4455 197.705 13.5502 197.465 13.5502ZM105.879 11.5622H196.563V4.97001C196.563 4.17937 196.277 3.42135 195.77 2.86229C195.263 2.30323 194.575 1.98879 193.857 1.988H108.586C107.869 1.98892 107.181 2.30339 106.673 2.86243C106.166 3.42146 105.881 4.17941 105.88 4.97001L105.879 11.5622Z" fill="#1F3969"/>
<path d="M197.465 13.5502H104.978C104.739 13.5502 104.509 13.4455 104.34 13.2591C104.171 13.0727 104.076 12.8199 104.076 12.5562V4.97001C104.077 3.65232 104.553 2.38903 105.398 1.45729C106.244 0.525542 107.39 0.00144707 108.586 0H193.857C195.053 0.00144707 196.2 0.525542 197.045 1.45729C197.891 2.38903 198.366 3.65232 198.367 4.97001V12.5562C198.367 12.8199 198.272 13.0727 198.103 13.2591C197.934 13.4455 197.705 13.5502 197.465 13.5502ZM105.879 11.5622H196.563V4.97001C196.563 4.17937 196.277 3.42135 195.77 2.86229C195.263 2.30323 194.575 1.98879 193.857 1.988H108.586C107.869 1.98892 107.181 2.30339 106.673 2.86243C106.166 3.42146 105.881 4.17941 105.88 4.97001L105.879 11.5622Z" fill="#1F3969"/>
<path d="M193.857 83.6377H108.586C107.39 83.6362 106.244 83.1121 105.398 82.1804C104.553 81.2487 104.077 79.9853 104.076 78.6677V4.97C104.077 3.65232 104.553 2.38903 105.398 1.45728C106.244 0.525541 107.39 0.00144706 108.586 0H193.857C195.053 0.00144706 196.2 0.525541 197.045 1.45728C197.891 2.38903 198.366 3.65232 198.367 4.97V78.6677C198.366 79.9853 197.891 81.2487 197.045 82.1804C196.2 83.1121 195.053 83.6362 193.857 83.6377ZM108.586 1.988C107.869 1.98892 107.181 2.30339 106.673 2.86242C106.166 3.42146 105.881 4.17941 105.88 4.97V78.6677C105.881 79.4583 106.166 80.2162 106.673 80.7752C107.181 81.3343 107.869 81.6487 108.586 81.6497H193.857C194.575 81.6489 195.263 81.3345 195.77 80.7754C196.277 80.2163 196.563 79.4583 196.563 78.6677V4.97C196.563 4.17937 196.277 3.42135 195.77 2.86229C195.263 2.30322 194.575 1.98879 193.857 1.988H108.586Z" fill="#1F3969"/>
<g opacity="0.28">
<path opacity="0.28" d="M238.366 31.1848H186.043C184.05 31.1848 182.435 32.9649 182.435 35.1608V96.2644C182.435 98.4603 184.05 100.24 186.043 100.24H238.366C240.359 100.24 241.974 98.4603 241.974 96.2644V35.1608C241.974 32.9649 240.359 31.1848 238.366 31.1848Z" fill="#1F3969"/>
<path opacity="0.28" d="M238.366 101.235H186.043C184.847 101.233 183.701 100.709 182.855 99.7775C182.01 98.8458 181.534 97.5826 181.533 96.265V35.1608C181.534 33.8431 182.01 32.5798 182.855 31.6481C183.701 30.7163 184.847 30.1922 186.043 30.1908H238.366C239.562 30.1922 240.708 30.7163 241.554 31.6481C242.399 32.5798 242.875 33.8431 242.876 35.1608V96.265C242.875 97.5826 242.399 98.8458 241.554 99.7775C240.708 100.709 239.562 101.233 238.366 101.235V101.235ZM186.043 32.1788C185.325 32.1796 184.638 32.494 184.13 33.0531C183.623 33.6121 183.338 34.3701 183.337 35.1608V96.265C183.338 97.0555 183.623 97.8135 184.13 98.3725C184.638 98.9316 185.326 99.246 186.043 99.247H238.366C239.084 99.246 239.771 98.9316 240.279 98.3725C240.786 97.8135 241.071 97.0555 241.072 96.265V35.1608C241.071 34.3701 240.786 33.6121 240.279 33.0531C239.771 32.494 239.084 32.1796 238.366 32.1788H186.043Z" fill="#1F3969"/>
</g>
<path d="M241.974 27.7058H189.651C187.658 27.7058 186.043 29.4859 186.043 31.6818V92.7854C186.043 94.9813 187.658 96.7614 189.651 96.7614H241.974C243.967 96.7614 245.582 94.9813 245.582 92.7854V31.6818C245.582 29.4859 243.967 27.7058 241.974 27.7058Z" fill="#2AA1FF"/>
<path d="M241.974 97.756H189.651C188.455 97.7544 187.309 97.2302 186.463 96.2985C185.618 95.3668 185.142 94.1036 185.141 92.786V31.6818C185.142 30.3641 185.618 29.1008 186.463 28.1691C187.309 27.2373 188.455 26.7132 189.651 26.7118H241.974C243.17 26.7132 244.316 27.2373 245.162 28.1691C246.007 29.1008 246.483 30.3641 246.484 31.6818V92.786C246.483 94.1036 246.007 95.3668 245.162 96.2985C244.316 97.2302 243.17 97.7544 241.974 97.756ZM189.651 28.6998C188.933 28.7006 188.246 29.015 187.738 29.5741C187.231 30.1331 186.946 30.8911 186.945 31.6818V92.786C186.946 93.5765 187.231 94.3345 187.738 94.8935C188.246 95.4526 188.933 95.767 189.651 95.768H241.974C242.692 95.767 243.379 95.4526 243.887 94.8935C244.394 94.3345 244.679 93.5765 244.68 92.786V31.6818C244.679 30.8911 244.394 30.1331 243.887 29.5741C243.379 29.015 242.692 28.7006 241.974 28.6998H189.651Z" fill="#1F3969"/>
<g style="mix-blend-mode:screen" opacity="0.34">
<path d="M234.188 37.6155H197.401C196.114 37.6155 195.071 38.7652 195.071 40.1835V44.0601C195.071 45.4784 196.114 46.6281 197.401 46.6281H234.188C235.475 46.6281 236.519 45.4784 236.519 44.0601V40.1835C236.519 38.7652 235.475 37.6155 234.188 37.6155Z" stroke="white" stroke-width="2" stroke-linecap="round" stroke-linejoin="round"/>
</g>
<g style="mix-blend-mode:screen" opacity="0.34">
<g style="mix-blend-mode:screen" opacity="0.34">
<path d="M218.022 52.181H197.437C196.15 52.181 195.107 53.3308 195.107 54.749V58.6257C195.107 60.0439 196.15 61.1936 197.437 61.1936H218.022C219.309 61.1936 220.352 60.0439 220.352 58.6257V54.749C220.352 53.3308 219.309 52.181 218.022 52.181Z" stroke="white" stroke-width="2" stroke-linecap="round" stroke-linejoin="round"/>
</g>
<g style="mix-blend-mode:screen" opacity="0.34">
<path d="M234.225 52.181H226.262C224.975 52.181 223.932 53.3308 223.932 54.749V58.6257C223.932 60.0439 224.975 61.1936 226.262 61.1936H234.225C235.512 61.1936 236.555 60.0439 236.555 58.6257V54.749C236.555 53.3308 235.512 52.181 234.225 52.181Z" stroke="white" stroke-width="2" stroke-linecap="round" stroke-linejoin="round"/>
</g>
</g>
<path d="M195.071 76.3273H236.519" stroke="white" stroke-width="2" stroke-linecap="round" stroke-linejoin="round"/>
<path d="M195.071 81.6904H236.519" stroke="white" stroke-width="2" stroke-linecap="round" stroke-linejoin="round"/>
<path d="M195.071 87.053H220.316" stroke="white" stroke-width="2" stroke-linecap="round" stroke-linejoin="round"/>
<path d="M114.03 8.76312C115.027 8.76312 115.834 7.87307 115.834 6.77512C115.834 5.67718 115.027 4.78712 114.03 4.78712C113.034 4.78712 112.226 5.67718 112.226 6.77512C112.226 7.87307 113.034 8.76312 114.03 8.76312Z" fill="#1F3969"/>
<path d="M120.293 8.76312C121.289 8.76312 122.097 7.87307 122.097 6.77512C122.097 5.67718 121.289 4.78712 120.293 4.78712C119.297 4.78712 118.489 5.67718 118.489 6.77512C118.489 7.87307 119.297 8.76312 120.293 8.76312Z" fill="#1F3969"/>
<path d="M126.556 8.76312C127.552 8.76312 128.36 7.87307 128.36 6.77512C128.36 5.67718 127.552 4.78712 126.556 4.78712C125.559 4.78712 124.752 5.67718 124.752 6.77512C124.752 7.87307 125.559 8.76312 126.556 8.76312Z" fill="#1F3969"/>
<path d="M158.112 21.7313H163.942" stroke="white" stroke-width="4" stroke-linecap="round" stroke-linejoin="round"/>
<path d="M128.36 21.7313H153.785" stroke="#7BFFA0" stroke-width="4" stroke-linecap="round" stroke-linejoin="round"/>
<path d="M115.834 21.7313H124.752" stroke="#9169FF" stroke-width="4" stroke-linecap="round" stroke-linejoin="round"/>
<path d="M127.458 70.7152H146.877" stroke="#9169FF" stroke-width="4" stroke-linecap="round" stroke-linejoin="round"/>
<path d="M115.834 70.7152H122.097" stroke="#7BFFA0" stroke-width="4" stroke-linecap="round" stroke-linejoin="round"/>
<path d="M153.786 27.8544H157.4" stroke="white" stroke-width="4" stroke-linecap="round" stroke-linejoin="round"/>
<path d="M137.157 27.8544H149.437" stroke="#9169FF" stroke-width="4" stroke-linecap="round" stroke-linejoin="round"/>
<path d="M120.293 27.8544H132.806" stroke="#FFC47D" stroke-width="4" stroke-linecap="round" stroke-linejoin="round"/>
<path d="M139.661 33.9774H150.412" stroke="white" stroke-width="4" stroke-linecap="round" stroke-linejoin="round"/>
<path d="M126.103 33.9774H136.243" stroke="#FF5757" stroke-width="4" stroke-linecap="round" stroke-linejoin="round"/>
<path d="M141.094 40.1005H143.321" stroke="white" stroke-width="4" stroke-linecap="round" stroke-linejoin="round"/>
<path d="M132.156 40.1005H137.157" stroke="#9169FF" stroke-width="4" stroke-linecap="round" stroke-linejoin="round"/>
<path d="M120.293 40.1005H128.36" stroke="#7BFFA0" stroke-width="4" stroke-linecap="round" stroke-linejoin="round"/>
<path d="M137.612 46.2235H151.996" stroke="#FFC47D" stroke-width="4" stroke-linecap="round" stroke-linejoin="round"/>
<path d="M120.293 46.2235H133.204" stroke="#FF5757" stroke-width="4" stroke-linecap="round" stroke-linejoin="round"/>
<path d="M154.251 52.3465H162.073" stroke="#9169FF" stroke-width="4" stroke-linecap="round" stroke-linejoin="round"/>
<path d="M137.612 52.3465H150.127" stroke="#FF5757" stroke-width="4" stroke-linecap="round" stroke-linejoin="round"/>
<path d="M126.103 52.3465H133.204" stroke="#7BFFA0" stroke-width="4" stroke-linecap="round" stroke-linejoin="round"/>
<path d="M143.297 58.4696H150.127" stroke="white" stroke-width="4" stroke-linecap="round" stroke-linejoin="round"/>
<path d="M126.103 58.4696H138.616" stroke="#9169FF" stroke-width="4" stroke-linecap="round" stroke-linejoin="round"/>
<path d="M161.027 64.5926H168.826" stroke="white" stroke-width="4" stroke-linecap="round" stroke-linejoin="round"/>
<path d="M137.157 64.5926H156.807" stroke="#FFC47D" stroke-width="4" stroke-linecap="round" stroke-linejoin="round"/>
<path d="M120.293 64.5926H132.806" stroke="white" stroke-width="4" stroke-linecap="round" stroke-linejoin="round"/>
<path d="M121.859 144.561H24.6873C24.4481 144.561 24.2186 144.457 24.0495 144.27C23.8803 144.084 23.7853 143.831 23.7853 143.567C23.7853 143.304 23.8803 143.051 24.0495 142.865C24.2186 142.678 24.4481 142.573 24.6873 142.573H121.859C122.099 142.573 122.328 142.678 122.497 142.865C122.666 143.051 122.761 143.304 122.761 143.567C122.761 143.831 122.666 144.084 122.497 144.27C122.328 144.457 122.099 144.561 121.859 144.561Z" fill="#1F3969"/>
<path d="M121.859 148.546H24.6873C24.4481 148.546 24.2186 148.441 24.0495 148.255C23.8803 148.068 23.7853 147.815 23.7853 147.552C23.7853 147.288 23.8803 147.035 24.0495 146.849C24.2186 146.663 24.4481 146.558 24.6873 146.558H121.859C122.099 146.558 122.328 146.663 122.497 146.849C122.666 147.035 122.761 147.288 122.761 147.552C122.761 147.815 122.666 148.068 122.497 148.255C122.328 148.441 122.099 148.546 121.859 148.546Z" fill="#1F3969"/>
<path d="M122.775 152.403H23.5787C23.4317 152.403 23.2868 152.363 23.1568 152.288C23.0268 152.212 22.9156 152.102 22.8329 151.968C22.7502 151.834 22.6985 151.68 22.6823 151.519C22.666 151.358 22.6858 151.195 22.7399 151.044C23.877 147.635 23.877 143.892 22.7399 140.484C22.6859 140.333 22.6662 140.17 22.6825 140.009C22.6987 139.848 22.7505 139.694 22.8332 139.56C22.9159 139.426 23.027 139.316 23.157 139.241C23.2869 139.165 23.4317 139.125 23.5787 139.125H122.775C122.922 139.125 123.067 139.165 123.197 139.241C123.327 139.316 123.438 139.426 123.521 139.56C123.603 139.694 123.655 139.848 123.671 140.009C123.688 140.17 123.668 140.333 123.614 140.484C122.477 143.892 122.477 147.636 123.614 151.044C123.668 151.195 123.688 151.358 123.672 151.519C123.655 151.68 123.604 151.834 123.521 151.968C123.438 152.102 123.327 152.212 123.197 152.288C123.067 152.363 122.922 152.403 122.775 152.403ZM24.8325 150.415H121.522C120.769 147.37 120.769 144.158 121.522 141.113H24.8325C25.5848 144.158 25.5848 147.37 24.8325 150.415V150.415Z" fill="#1F3969"/>
<path d="M256.233 99.631L251.837 100.2L255.657 136.06L260.053 135.492L256.233 99.631Z" fill="#FFA364"/>
<path d="M256.233 99.631L251.837 100.2L252.226 103.848L256.622 103.279L256.233 99.631Z" fill="#2AA1FF"/>
<path d="M252.226 104.84C252.005 104.84 251.791 104.751 251.626 104.589C251.461 104.427 251.356 104.204 251.33 103.962L250.941 100.314C250.928 100.184 250.937 100.053 250.969 99.9273C251.001 99.8017 251.056 99.6843 251.129 99.5819C251.203 99.4794 251.294 99.3939 251.397 99.3302C251.5 99.2665 251.614 99.2259 251.732 99.2107L256.128 98.6421C256.245 98.6268 256.365 98.6373 256.479 98.6728C256.593 98.7083 256.699 98.7683 256.792 98.8492C256.885 98.9301 256.963 99.0304 257.021 99.1443C257.078 99.2583 257.115 99.3837 257.129 99.5133L257.517 103.161C257.545 103.423 257.477 103.686 257.329 103.893C257.181 104.1 256.964 104.233 256.727 104.264L252.331 104.833C252.296 104.838 252.261 104.84 252.226 104.84V104.84ZM252.838 101.069L253.016 102.743L255.62 102.406L255.443 100.732L252.838 101.069Z" fill="#1F3969"/>
<path d="M255.657 137.055C255.436 137.055 255.223 136.965 255.058 136.803C254.892 136.641 254.787 136.418 254.761 136.177L250.941 100.316C250.928 100.186 250.937 100.055 250.969 99.9293C251.001 99.8037 251.056 99.6864 251.129 99.5839C251.203 99.4814 251.294 99.3959 251.397 99.3322C251.501 99.2685 251.614 99.2279 251.732 99.2127L256.128 98.6441C256.246 98.6289 256.365 98.6393 256.479 98.6748C256.593 98.7104 256.699 98.7703 256.792 98.8512C256.885 98.9321 256.963 99.0324 257.021 99.1464C257.078 99.2603 257.115 99.3857 257.129 99.5153L260.949 135.376C260.963 135.506 260.953 135.637 260.921 135.763C260.889 135.888 260.835 136.006 260.761 136.108C260.688 136.21 260.597 136.296 260.493 136.36C260.39 136.423 260.276 136.464 260.158 136.479L255.763 137.048C255.728 137.052 255.692 137.055 255.657 137.055V137.055ZM252.838 101.072L256.446 134.958L259.051 134.621L255.443 100.735L252.838 101.072Z" fill="#1F3969"/>
<path d="M268.338 106.934L263.938 106.407L260.397 142.302L264.797 142.83L268.338 106.934Z" fill="#FF5252"/>
<path d="M264.8 143.821C264.767 143.821 264.734 143.821 264.701 143.815L260.3 143.288C260.063 143.26 259.846 143.128 259.696 142.923C259.546 142.718 259.476 142.456 259.501 142.195L263.042 106.299C263.068 106.038 263.187 105.798 263.373 105.633C263.559 105.468 263.796 105.391 264.034 105.419L268.434 105.945C268.672 105.974 268.889 106.105 269.039 106.31C269.189 106.515 269.259 106.777 269.234 107.039L265.693 142.934C265.669 143.177 265.565 143.402 265.4 143.565C265.235 143.729 265.021 143.82 264.8 143.821ZM261.392 141.419L263.999 141.731L267.345 107.813L264.738 107.5L261.392 141.419Z" fill="#1F3969"/>
<path d="M268.338 106.934L263.938 106.407L263.578 110.058L267.978 110.585L268.338 106.934Z" fill="#2D425E"/>
<path d="M267.981 111.577C267.949 111.577 267.916 111.577 267.883 111.572L263.482 111.044C263.245 111.016 263.027 110.885 262.877 110.68C262.727 110.475 262.657 110.213 262.683 109.951L263.043 106.299C263.069 106.038 263.188 105.798 263.374 105.633C263.56 105.468 263.798 105.391 264.036 105.419L268.436 105.945C268.674 105.974 268.891 106.105 269.041 106.31C269.191 106.515 269.261 106.777 269.236 107.039L268.875 110.69C268.851 110.933 268.746 111.158 268.582 111.322C268.417 111.485 268.203 111.576 267.981 111.577V111.577ZM264.574 109.175L267.18 109.488L267.346 107.813L264.739 107.5L264.574 109.175Z" fill="#1F3969"/>
<path d="M271.01 154.527H253.303L250.424 124.616H273.89L271.01 154.527Z" fill="#6567C3"/>
<g style="mix-blend-mode:overlay">
<path d="M250.424 124.616L250.476 125.165H268.355L265.528 154.527H271.01L273.89 124.616H250.424Z" fill="#6567C3"/>
</g>
<path d="M271.009 155.521H253.303C253.08 155.521 252.865 155.43 252.7 155.266C252.534 155.102 252.429 154.876 252.406 154.632L249.527 124.72C249.513 124.582 249.527 124.441 249.566 124.309C249.605 124.176 249.668 124.054 249.753 123.951C249.838 123.847 249.941 123.764 250.057 123.707C250.172 123.651 250.297 123.621 250.424 123.621H273.89C274.016 123.621 274.141 123.651 274.257 123.707C274.372 123.764 274.476 123.847 274.56 123.951C274.645 124.054 274.709 124.176 274.748 124.309C274.787 124.441 274.8 124.582 274.787 124.72L271.907 154.631C271.884 154.875 271.779 155.101 271.613 155.266C271.447 155.43 271.232 155.521 271.009 155.521ZM254.114 153.533H270.199L272.887 125.61H251.426L254.114 153.533Z" fill="#1F3969"/>
</svg>
